<?xml version="1.0" encoding="UTF-8" standalone="no"?>
<svg width="120px" height="34px" viewBox="0 0 120 34" version="1.1" xmlns="http://www.w3.org/2000/svg" xmlns:xlink="http://www.w3.org/1999/xlink" xmlns:sketch="http://www.bohemiancoding.com/sketch/ns">
    <!-- Generator: Sketch 3.2 (9961) - http://www.bohemiancoding.com/sketch -->
    <title>Netflix_Logo_Print_OneColorPMS 4</title>
    <desc>Created with Sketch.</desc>
    <defs>
        <path id="path-1" d="M3.14168837e-15,0 L120,0 L120,34 L0,34 L3.14168837e-15,0 Z"></path>
    </defs>
    <g id="Page-1" stroke="none" stroke-width="1" fill="none" fill-rule="evenodd" sketch:type="MSPage">
        <g id="Life-At-Netflix-2" sketch:type="MSArtboardGroup" transform="translate(-700.000000, -217.000000)">
            <g id="Netflix_Logo_Print_OneColorPMS-4" sketch:type="MSLayerGroup" transform="translate(700.000000, 217.000000)">
                <mask id="mask-2" sketch:name="Clip 2" fill="white">
                    <use xlink:href="#path-1"></use>
                </mask>
                <g id="Clip-2"></g>
                <path d="M79.8286049,0 L74.8387097,0 L74.8387097,29.8672433 C79.3737894,30.0342629 83.8895394,30.2791642 88.3870968,30.6 L88.3870968,25.3380001 C85.5422254,25.1348994 82.6893948,24.962708 79.8286049,24.8202697 L79.8286049,0 L79.8286049,0 Z M120,0 L114.387912,0 L110.687659,8.94453691 L107.363487,0 L101.835231,0 L107.775661,15.9827446 L101.290323,31.6622495 C103.084561,31.8447762 104.874142,32.0395078 106.661394,32.2453513 L110.43267,23.1287316 L114.168435,33.1784477 C116.114036,33.4394257 118.054981,33.711637 119.992432,34 L120,33.9965996 L113.343505,16.0906454 L120,0 L120,0 Z M57.4193548,29.24 L62.2727766,29.238798 L62.2727766,17.2386012 L68.8516445,17.2386012 L68.8516445,12.0410641 L62.2727766,12.0410641 L62.2727766,5.24429407 L70.9677419,5.24429407 L70.9677419,0 L57.4193548,0 L57.4193548,29.24 L57.4193548,29.24 Z M38.7096774,5.31002915 L43.9488165,5.31002915 L43.9488165,29.92 C45.6145529,29.85294 47.2837111,29.7976247 48.9546374,29.7509505 L48.9546374,5.31002915 L54.1935484,5.31002915 L54.1935484,0 L38.7096774,0 L38.7096774,5.31002915 L38.7096774,5.31002915 Z M21.9354839,31.28 C26.4309593,30.8350779 30.9471624,30.4684152 35.483871,30.1837643 L35.483871,24.9487427 C32.5852654,25.1312268 29.6949399,25.3472418 26.8130055,25.5941249 L26.8130055,17.6693554 C28.7039537,17.6487768 31.1938948,17.586012 33.3997602,17.615851 L33.3997602,12.381011 C31.637513,12.376411 28.8050917,12.4078842 26.8130055,12.4356654 L26.8130055,5.28150509 L35.483871,5.28150509 L35.483871,0 L21.9354839,0 L21.9354839,31.28 L21.9354839,31.28 Z M11.1705292,19.240705 L4.71247608,0 L0,0 L0,34 C1.64965192,33.7476493 3.30241095,33.5059246 4.95844658,33.2740972 L4.95844658,14.7849794 L10.7007899,32.5149808 C12.5069275,32.2898325 14.3162286,32.0765853 16.1290323,31.8761499 L16.1290323,0 L11.1705292,0 L11.1705292,19.240705 L11.1705292,19.240705 Z M92.9032258,30.839988 C94.6262041,30.9760767 96.3462422,31.1221201 98.0645161,31.28 L98.0645161,0 L92.9032258,0 L92.9032258,30.839988 L92.9032258,30.839988 Z" id="Fill-1" fill="#E82C2A" sketch:type="MSShapeGroup" mask="url(#mask-2)"></path>
            </g>
        </g>
    </g>
</svg>